# xmcd
#
# Track frame offsets:
#	150
#	16515
#	28067
#	46517
#	59717
#	80075
#	93204
#	105202
#	130310
#	140530
#
# Disc length: 2096 seconds
#
# Revision: 0
# Processed by: cddbd v1.5.2PL0 Copyright (c) Steve Scherf et al.
# Submitted via: EasyCDDAExtractor 10.0.6.1
#
DISCID=75082e0a
DTITLE=Squire Parsons Trio - Out Of Step
DYEAR=1900
DGENRE=
TTITLE0=Out Of Step
TTITLE1=Good Old Gospel SonTouch The Hem
TTITLE2=Touch The Hem
TTITLE3=A Little Down Payment
TTITLE4=Who's Gonna Take Their Place
TTITLE5=Wake Up
TTITLE6=Isn't It Wonderful
TTITLE7=We Will Sing
TTITLE8=When All The Family Gets Home
TTITLE9=Somebody Praise The Lord
EXTD=
EXTT0=
EXTT1=
EXTT2=
EXTT3=
EXTT4=
EXTT5=
EXTT6=
EXTT7=
EXTT8=
EXTT9=
PLAYORDER=
